<?xml version="1.0" encoding="UTF-8" standalone="no"?>
<svg
   width="22"
   height="22"
   viewBox="0 0 22 22"
   fill="none"
   version="1.1"
   id="svg4"
   sodipodi:docname="dollar.svg"
   inkscape:version="1.2.2 (732a01da63, 2022-12-09)"
   xmlns:inkscape="http://www.inkscape.org/namespaces/inkscape"
   xmlns:sodipodi="http://sodipodi.sourceforge.net/DTD/sodipodi-0.dtd"
   xmlns="http://www.w3.org/2000/svg"
   xmlns:svg="http://www.w3.org/2000/svg">
  <defs
     id="defs8" />
  <sodipodi:namedview
     id="namedview6"
     pagecolor="#ffffff"
     bordercolor="#000000"
     borderopacity="0.25"
     inkscape:showpageshadow="2"
     inkscape:pageopacity="0.0"
     inkscape:pagecheckerboard="0"
     inkscape:deskcolor="#d1d1d1"
     showgrid="false"
     inkscape:zoom="38.045455"
     inkscape:cx="7.6093189"
     inkscape:cy="11.013142"
     inkscape:window-width="1920"
     inkscape:window-height="1017"
     inkscape:window-x="-8"
     inkscape:window-y="-8"
     inkscape:window-maximized="1"
     inkscape:current-layer="svg4" />
  <path
     id="path334"
     style="fill:#000000;stroke-width:0.909091"
     d="M 11,1 C 5.4771601,1 1,5.4771601 1,11 1,16.522813 5.4771601,21 11,21 16.522813,21 21,16.522813 21,11 21,5.4771601 16.522813,1 11,1 Z m -0.850497,3.8316762 h 1.855469 v 1.2677556 c 0.265726,0.058491 0.515017,0.1412587 0.74929,0.246804 0.504544,0.222727 0.926065,0.5475147 1.262428,0.9747869 0.340909,0.4227268 0.587643,0.9374296 0.742188,1.5465199 L 12.850142,9.2084517 C 12.786505,8.9175429 12.667755,8.663139 12.495028,8.4449574 12.322301,8.2222304 12.107812,8.0492186 11.848722,7.9264915 11.594176,7.7992189 11.310085,7.731392 10.996449,7.7223011 c -0.3,-0.00909 -0.573083,0.034162 -0.818537,0.1296165 -0.2408998,0.095454 -0.4351565,0.2303269 -0.5806109,0.403054 -0.1409089,0.1681817 -0.2112926,0.3580968 -0.2112926,0.5717329 0,0.2363634 0.1000712,0.4416195 0.300071,0.6143466 0.1999999,0.1681817 0.5188925,0.3140626 0.9552565,0.4367898 l 1.731179,0.4900571 c 0.86818,0.249999 1.493181,0.588352 1.875,1.015625 0.386362,0.427272 0.58061,0.992898 0.58061,1.697442 0,0.618182 -0.15689,1.161791 -0.470526,1.629972 -0.313635,0.468182 -0.75206,0.833666 -1.315695,1.097301 -0.316364,0.149182 -0.662388,0.256651 -1.036932,0.321378 v 1.23402 H 10.149503 V 16.118963 C 9.8124214,16.054417 9.497852,15.953068 9.203125,15.815341 8.6485801,15.551705 8.1965905,15.181107 7.8465909,14.703835 7.4965913,14.222017 7.2726562,13.653835 7.1772017,12.99929 l 1.8412642,-0.285866 c 0.1227272,0.536362 0.3796879,0.963778 0.7705966,1.28196 0.3954445,0.318181 0.8661235,0.477627 1.4115765,0.477627 0.513636,0 0.938495,-0.121306 1.274858,-0.362216 0.340908,-0.240909 0.511364,-0.538565 0.511364,-0.89311 0,-0.24091 -0.0755,-0.438495 -0.225497,-0.59304 -0.145455,-0.15909 -0.375285,-0.28885 -0.68892,-0.38885 L 9.6452415,11.486505 C 8.2452429,11.054688 7.5465199,10.199856 7.5465199,8.9225853 c 0,-0.5999995 0.1407673,-1.1198158 0.4225852,-1.5607245 C 8.2554685,6.9209522 8.6565346,6.5825992 9.1747159,6.3462358 9.4699884,6.2101541 9.794785,6.1128062 10.149503,6.0550426 Z" />
</svg>
