<?xml version="1.0" encoding="UTF-8" standalone="no"?>
<svg
   width="22"
   height="22"
   viewBox="0 0 22 22"
   fill="none"
   version="1.1"
   id="svg70"
   sodipodi:docname="graph.svg"
   inkscape:version="1.2.2 (732a01da63, 2022-12-09)"
   xmlns:inkscape="http://www.inkscape.org/namespaces/inkscape"
   xmlns:sodipodi="http://sodipodi.sourceforge.net/DTD/sodipodi-0.dtd"
   xmlns="http://www.w3.org/2000/svg"
   xmlns:svg="http://www.w3.org/2000/svg">
  <defs
     id="defs74" />
  <sodipodi:namedview
     id="namedview72"
     pagecolor="#ffffff"
     bordercolor="#000000"
     borderopacity="0.25"
     inkscape:showpageshadow="2"
     inkscape:pageopacity="0.0"
     inkscape:pagecheckerboard="0"
     inkscape:deskcolor="#d1d1d1"
     showgrid="false"
     inkscape:zoom="38.045455"
     inkscape:cx="7.6093189"
     inkscape:cy="11.013142"
     inkscape:window-width="1920"
     inkscape:window-height="1017"
     inkscape:window-x="-8"
     inkscape:window-y="-8"
     inkscape:window-maximized="1"
     inkscape:current-layer="svg70" />
  <path
     id="path354"
     d="M 11,1 C 5.4771601,1 1,5.4771601 1,11 1,16.522813 5.4771601,21 11,21 16.522813,21 21,16.522813 21,11 21,5.4771601 16.522813,1 11,1 Z m 2.691762,4.5454545 c 0.223295,-0.00854 0.444488,0.06679 0.617897,0.2112927 l 2.727273,2.2727273 c 0.385727,0.3214178 0.436866,0.894485 0.115412,1.2801846 C 16.83098,9.6953678 16.257886,9.746498 15.872159,9.425071 L 13.922585,7.8004262 11.756392,11.049716 c -0.254363,0.381454 -0.752907,0.514039 -1.162997,0.308949 L 8.3987926,10.261364 6.1278409,12.152344 C 5.7421413,12.473798 5.1690741,12.422659 4.8476563,12.036932 4.5262293,11.651205 4.5773595,11.078111 4.9630682,10.756747 L 7.6903409,8.4840199 C 7.9678043,8.2528019 8.3562873,8.2070899 8.6793324,8.368608 l 2.0099436,1.0049715 2.281605,-3.4232954 c 0.143182,-0.2146362 0.371412,-0.3589245 0.626775,-0.3959517 0.03191,-0.00463 0.06221,-0.00766 0.09411,-0.00888 z M 5.5454545,12.818182 H 16.454545 c 0.50209,0 0.909091,0.407001 0.909091,0.909091 0,0.50209 -0.407001,0.909091 -0.909091,0.909091 H 5.5454545 c -0.5020721,0 -0.9090909,-0.407001 -0.9090909,-0.909091 0,-0.50209 0.4070188,-0.909091 0.9090909,-0.909091 z"
     style="fill:#000000;stroke-width:0.909091" />
</svg>
