<?xml version="1.0" encoding="UTF-8" standalone="no"?>
<svg
   width="22"
   height="22"
   viewBox="0 0 22 22"
   fill="none"
   version="1.1"
   id="svg4"
   sodipodi:docname="percent.svg"
   inkscape:version="1.2.2 (732a01da63, 2022-12-09)"
   xmlns:inkscape="http://www.inkscape.org/namespaces/inkscape"
   xmlns:sodipodi="http://sodipodi.sourceforge.net/DTD/sodipodi-0.dtd"
   xmlns="http://www.w3.org/2000/svg"
   xmlns:svg="http://www.w3.org/2000/svg">
  <defs
     id="defs8" />
  <sodipodi:namedview
     id="namedview6"
     pagecolor="#ffffff"
     bordercolor="#000000"
     borderopacity="0.25"
     inkscape:showpageshadow="2"
     inkscape:pageopacity="0.0"
     inkscape:pagecheckerboard="0"
     inkscape:deskcolor="#d1d1d1"
     showgrid="false"
     inkscape:zoom="38.045455"
     inkscape:cx="5.9271206"
     inkscape:cy="11.013142"
     inkscape:window-width="1920"
     inkscape:window-height="1017"
     inkscape:window-x="-8"
     inkscape:window-y="-8"
     inkscape:window-maximized="1"
     inkscape:current-layer="svg4" />
  <path
     id="path325"
     style="fill:#000000;stroke-width:0.908851"
     d="M 11.20441,1.0046696 C 10.010069,0.97483301 8.8111822,1.1557854 7.6808361,1.5673764 3.9316111,2.8410098 1.1674263,6.5245147 1.0188849,10.48548 c -0.24887839,3.850518 1.9835377,7.699846 5.4335818,9.418682 1.4015909,0.720267 2.9758785,1.095861 4.5513573,1.093461 3.931235,0.05459 7.721838,-2.472613 9.210995,-6.106345 C 21.769572,11.321538 20.966135,6.8870303 18.240908,4.1022195 16.438237,2.1621323 13.831961,1.0703101 11.20441,1.0046696 Z M 8.1210609,5.9660748 C 9.5912121,5.939917 10.913164,7.4435531 10.545848,8.926942 10.277682,10.517907 8.2724245,11.422322 6.9051173,10.560034 6.5403546,10.344071 6.2302436,10.036207 6.0122418,9.6724841 5.1415295,8.2948948 6.077434,6.3081764 7.66131,6.0264282 7.814855,5.9892888 7.9689763,5.9687808 8.1210609,5.9660748 Z M 14.681832,6.182637 15.908426,7.4234321 7.3204907,15.998941 6.0938964,14.772347 Z M 8.1015348,7.5583397 C 7.8089687,7.560352 7.5240082,7.6962825 7.3755188,7.9967895 6.8876197,8.7124445 7.8580565,9.6846563 8.5737115,9.1967572 8.8777101,9.0227919 9.0717496,8.6673432 9.0174865,8.3163075 8.9717473,7.8389411 8.5291316,7.5553986 8.1015348,7.5583397 Z M 13.842209,11.28605 c 1.48382,-0.04353 2.789998,1.478514 2.428337,2.957317 -0.264504,1.595727 -2.273119,2.494098 -3.640731,1.633092 -0.408126,-0.244838 -0.746709,-0.603993 -0.963878,-1.027783 -0.785348,-1.42622 0.280446,-3.356952 1.87628,-3.53245 0.100049,-0.01729 0.201071,-0.02727 0.299992,-0.03018 z m -0.0142,1.588715 c -0.292566,0.002 -0.579301,0.137942 -0.72779,0.438449 -0.4879,0.715655 0.484312,1.687867 1.199967,1.199968 0.303999,-0.173965 0.496258,-0.529414 0.442,-0.88045 -0.04574,-0.477367 -0.48658,-0.760908 -0.914177,-0.757967 z" />
</svg>
