<?xml version="1.0" encoding="UTF-8" standalone="no"?>
<svg
   width="22"
   height="22"
   viewBox="0 0 22 22"
   fill="none"
   version="1.1"
   id="svg82"
   sodipodi:docname="ruble.svg"
   inkscape:version="1.2.2 (732a01da63, 2022-12-09)"
   xmlns:inkscape="http://www.inkscape.org/namespaces/inkscape"
   xmlns:sodipodi="http://sodipodi.sourceforge.net/DTD/sodipodi-0.dtd"
   xmlns="http://www.w3.org/2000/svg"
   xmlns:svg="http://www.w3.org/2000/svg">
  <defs
     id="defs86" />
  <sodipodi:namedview
     id="namedview84"
     pagecolor="#ffffff"
     bordercolor="#000000"
     borderopacity="0.25"
     inkscape:showpageshadow="2"
     inkscape:pageopacity="0.0"
     inkscape:pagecheckerboard="0"
     inkscape:deskcolor="#d1d1d1"
     showgrid="false"
     inkscape:zoom="26.902199"
     inkscape:cx="4.6278745"
     inkscape:cy="11.783423"
     inkscape:window-width="1920"
     inkscape:window-height="1017"
     inkscape:window-x="-8"
     inkscape:window-y="-8"
     inkscape:window-maximized="1"
     inkscape:current-layer="svg82" />
  <path
     id="path308"
     style="fill:#000000;stroke-width:0.909091"
     d="M 11,1 C 5.4771601,1 1,5.4771601 1,11 1,16.522813 5.4771601,21 11,21 16.522813,21 21,16.522813 21,11 21,5.4771601 16.522813,1 11,1 Z M 8.65625,6.181108 h 1.171875 0.681819 1.882101 c 0.03636,-1e-7 0.133879,0.00256 0.29297,0.0071 0.15909,0.00455 0.334659,0.020668 0.525568,0.04794 0.586362,0.086364 1.065482,0.2806111 1.43821,0.5806109 0.377272,0.2954542 0.655469,0.6668328 0.832742,1.1168323 0.177271,0.4499996 0.266334,0.9444608 0.266334,1.4808239 0,0.8318169 -0.210369,1.5136369 -0.628551,2.0454549 -0.413636,0.531818 -1.049645,0.859163 -1.908735,0.98189 -0.190909,0.02727 -0.366478,0.04162 -0.525568,0.04616 -0.159091,0.0045 -0.256606,0.0071 -0.29297,0.0071 h -1.882101 v 0.845171 h 3.192471 v 1.432884 H 10.509944 V 16 H 8.65625 V 14.773083 H 7.7009944 V 13.340199 H 8.65625 V 12.495028 H 7.7009944 V 10.927202 H 8.65625 Z m 1.853694,1.7329545 v 3.0131395 h 1.800425 c 0.06818,0 0.154688,-0.0026 0.259233,-0.0071 0.109091,-0.0091 0.23118,-0.03366 0.367543,-0.07457 0.340909,-0.104546 0.583523,-0.277557 0.724431,-0.518466 0.145455,-0.240909 0.21662,-0.5275572 0.21662,-0.8593751 0,-0.1909089 -0.02713,-0.3884944 -0.08168,-0.5930397 -0.05,-0.2045453 -0.142401,-0.3860087 -0.278765,-0.5450994 -0.136363,-0.1636362 -0.33061,-0.2798297 -0.58061,-0.3480114 -0.122727,-0.036364 -0.244816,-0.055824 -0.367543,-0.060369 -0.122727,-0.00455 -0.209233,-0.0071 -0.259233,-0.0071 z" />
</svg>
