<?xml version="1.0" encoding="UTF-8" standalone="no"?>
<svg
   width="22"
   height="22"
   viewBox="0 0 22 22"
   fill="none"
   version="1.1"
   id="svg4"
   sodipodi:docname="star.svg"
   inkscape:version="1.2.2 (732a01da63, 2022-12-09)"
   xmlns:inkscape="http://www.inkscape.org/namespaces/inkscape"
   xmlns:sodipodi="http://sodipodi.sourceforge.net/DTD/sodipodi-0.dtd"
   xmlns="http://www.w3.org/2000/svg"
   xmlns:svg="http://www.w3.org/2000/svg">
  <defs
     id="defs8" />
  <sodipodi:namedview
     id="namedview6"
     pagecolor="#ffffff"
     bordercolor="#000000"
     borderopacity="0.25"
     inkscape:showpageshadow="2"
     inkscape:pageopacity="0.0"
     inkscape:pagecheckerboard="0"
     inkscape:deskcolor="#d1d1d1"
     showgrid="false"
     inkscape:zoom="38.045455"
     inkscape:cx="7.6093189"
     inkscape:cy="11.013142"
     inkscape:window-width="1920"
     inkscape:window-height="1017"
     inkscape:window-x="-8"
     inkscape:window-y="-8"
     inkscape:window-maximized="1"
     inkscape:current-layer="svg4" />
  <path
     id="path180"
     style="fill:#000000;stroke-width:0.908851"
     d="M 11.20441,1.0046696 C 10.010069,0.97483301 8.8111822,1.1557854 7.6808361,1.5673764 3.9316111,2.8410098 1.1674263,6.5245147 1.0188849,10.48548 c -0.24887839,3.850518 1.9835377,7.699846 5.4335818,9.418682 1.4015909,0.720267 2.9758785,1.095861 4.5513573,1.093461 3.931235,0.05459 7.721838,-2.472613 9.210995,-6.106345 C 21.769572,11.321538 20.966135,6.8870303 18.240908,4.1022195 16.438237,2.1621323 13.831961,1.0703101 11.20441,1.0046696 Z M 9.6192456,6.6370627 h 2.9502164 c -0.07374,0.9341982 -0.148152,1.8686851 -0.221887,2.8028832 l 2.556144,-1.1058874 0.910627,2.8011085 -2.705253,0.688738 1.819477,2.066217 -2.38396,1.720072 L 11.094354,13.274162 9.6440969,15.610194 7.2583622,13.890122 9.07784,11.823905 6.3743623,11.135167 7.2832136,8.3340585 9.839358,9.4399459 Z" />
</svg>
